Coordinates
version=1
nRows=7
nColumns=40
inDegrees=yes

Units are S.I. units (second, meters, Newtons, ...)
Angles are in degrees.

endheader
time	pelvis_tilt	pelvis_list	pelvis_rotation	pelvis_tx	pelvis_ty	pelvis_tz	hip_flexion_r	hip_adduction_r	hip_rotation_r	knee_angle_r	knee_angle_r_beta	ankle_angle_r	subtalar_angle_r	mtp_angle_r	hip_flexion_l	hip_adduction_l	hip_rotation_l	knee_angle_l	knee_angle_l_beta	ankle_angle_l	subtalar_angle_l	mtp_angle_l	lumbar_extension	lumbar_bending	lumbar_rotation	arm_flex_r	arm_add_r	arm_rot_r	elbow_flex_r	pro_sup_r	wrist_flex_r	wrist_dev_r	arm_flex_l	arm_add_l	arm_rot_l	elbow_flex_l	pro_sup_l	wrist_flex_l	wrist_dev_l
     21.12750000	     -4.97899936	     -3.58386784	    -12.40415738	      0.95730593	      0.92393040	      0.51490962	     20.73152741	      4.16497129	     -5.16921139	     21.67860284	     21.67860284	      8.46599107	      3.43270669	     -4.40896122	      2.38919304	     -7.42075546	    -13.01717630	     30.20516629	     30.20516629	     18.29589410	    -13.54827318	      0.04320907	     -9.79056872	     10.42161767	      0.70659748	    -10.71853189	    -12.69063946	    -19.64691878	     30.98849225	     46.69744996	      0.00000000	      0.00000000	     36.99125586	    -22.12981490	     -9.23655022	     73.05346491	     48.08435524	      0.00000000	      0.00000000
     21.14742857	     -4.87651462	     -3.68700378	    -11.83315678	      0.95800953	      0.92494690	      0.51893043	     19.87153534	      4.39682713	     -5.36848092	     21.27515872	     21.27515872	      8.82843197	      3.08496377	     -4.07134431	      3.64923714	     -8.29898532	    -12.34135663	     33.25173845	     33.25173845	     15.50038374	    -14.75990614	     -3.92061006	     -9.87139209	     10.45672398	      0.43192837	    -10.16617895	    -13.08451723	    -18.77139591	     32.98086277	     46.53064894	      0.00000000	      0.00000000	     35.78053138	    -21.58800952	     -9.98667426	     74.21244951	     48.13727432	      0.00000000	      0.00000000
     21.16735714	     -4.69355408	     -3.79500624	    -11.20717799	      0.95853716	      0.92600553	      0.52277081	     18.89743036	      4.57838056	     -5.78371613	     20.78719235	     20.78719235	      9.10528716	      3.02609587	     -4.04747235	      5.20301541	     -9.11904318	    -11.31472854	     36.92711944	     36.92711944	     13.83673142	    -15.62605454	     -4.24566895	     -9.97298928	     10.40615979	      0.60688188	     -9.23579930	    -13.39261179	    -18.63696824	     33.30774539	     46.51366369	      0.00000000	      0.00000000	     35.19118927	    -20.70810247	     -9.65773035	     74.09716408	     48.10711770	      0.00000000	      0.00000000
     21.18728571	     -4.51508281	     -3.88861660	    -10.56459180	      0.95888266	      0.92682526	      0.52651191	     18.00187754	      4.77495130	     -6.11224391	     20.39423434	     20.39423434	      9.36615474	      2.75505304	     -4.02567485	      6.97960160	     -9.90853839	    -10.20507167	     40.82088455	     40.82088455	     11.94842258	    -16.48137816	     -4.48353538	    -10.01034554	     10.32629766	      0.75792772	     -8.24620028	    -13.68673000	    -18.51233181	     33.71960850	     46.49463111	      0.00000000	      0.00000000	     34.31987320	    -19.73490912	     -9.32879360	     73.92738864	     48.07409313	      0.00000000	      0.00000000
     21.20721429	     -4.45296347	     -3.99925922	     -9.85843578	      0.95897509	      0.92727141	      0.53013422	     17.29079355	      5.03426733	     -6.36714453	     20.06398558	     20.06398558	      9.61957459	      2.20680636	     -4.00348716	      9.09319536	    -10.68490339	     -8.91965819	     44.85686898	     44.85686898	      9.85596909	    -17.37302720	     -4.50576464	     -9.91705947	     10.23921843	      0.83821343	     -7.35068550	    -14.00877878	    -18.34083553	     34.15379652	     46.47031756	      0.00000000	      0.00000000	     33.11217946	    -18.75537243	     -9.04072251	     73.65398662	     48.03922266	      0.00000000	      0.00000000
     21.22714286	     -4.26750567	     -4.12236630	     -9.19209144	      0.95893164	      0.92760687	      0.53372567	     16.57334182	      5.30528683	     -6.53667411	     19.94939608	     19.94939608	      9.90403145	      1.54271402	     -4.00117017	     11.18207032	    -11.41497738	     -7.69710671	     48.92122434	     48.92122434	      7.86933217	    -18.05889487	     -4.05157607	     -9.92626601	     10.09928671	      0.90689135	     -6.22815695	    -14.26606931	    -18.10417785	     34.65011674	     46.44073333	      0.00000000	      0.00000000	     31.75461203	    -17.73453995	     -8.74433221	     73.26693172	     48.00028511	      0.00000000	      0.00000000
     21.24707143	     -4.02200653	     -4.33000049	     -8.48933788	      0.95876094	      0.92770476	      0.53715256	     15.89142671	      5.62725085	     -6.82565241	     20.02477715	     20.02477715	     10.27788257	      0.90669290	     -4.02921670	     13.30343905	    -12.18946144	     -6.49622963	     52.96819210	     52.96819210	      6.07490622	    -18.56195854	     -3.17279090	    -10.03407288	     10.05349022	      1.00195585	     -4.95216965	    -14.50075883	    -17.88252668	     35.11932720	     46.41526684	      0.00000000	      0.00000000	     30.28587427	    -16.65308575	     -8.37168308	     72.73022108	     47.95298460	      0.00000000	      0.00000000
